<?xml version="1.0" encoding="UTF-8" standalone="no"?>
<!DOCTYPE svg PUBLIC "-//W3C//DTD SVG 1.1//EN" "http://www.w3.org/Graphics/SVG/1.1/DTD/svg11.dtd">
<svg width="100%" height="100%" viewBox="0 0 500 600" version="1.1" xmlns="http://www.w3.org/2000/svg" xmlns:xlink="http://www.w3.org/1999/xlink" xml:space="preserve" xmlns:serif="http://www.serif.com/" style="fill-rule:evenodd;clip-rule:evenodd;stroke-linejoin:round;stroke-miterlimit:2;">
    <g transform="matrix(1,0,0,1,-100,-200)">
        <g id="less" transform="matrix(-50,0,0,50,11750,-3900)">
            <path d="M231,91L231,90L233,90L233,86L231,86L231,85L229,85L229,84L227,84L227,83L225,83L225,82L223,82L223,84L225,84L225,85L227,85L227,86L229,86L229,87L231,87L231,89L229,89L229,90L227,90L227,91L225,91L225,92L223,92L223,94L225,94L225,93L227,93L227,92L229,92L229,91L231,91Z"/>
        </g>
    </g>
</svg>
