<?xml version="1.0" encoding="UTF-8" standalone="no"?>
<!DOCTYPE svg PUBLIC "-//W3C//DTD SVG 1.1//EN" "http://www.w3.org/Graphics/SVG/1.1/DTD/svg11.dtd">
<svg width="100%" height="100%" viewBox="0 0 250 950" version="1.1" xmlns="http://www.w3.org/2000/svg" xmlns:xlink="http://www.w3.org/1999/xlink" xml:space="preserve" xmlns:serif="http://www.serif.com/" style="fill-rule:evenodd;clip-rule:evenodd;stroke-linejoin:round;stroke-miterlimit:2;">
    <g transform="matrix(1,0,0,1,-100,0)">
        <g id="parenright" transform="matrix(50,0,0,50,-7550,-3900)">
            <path d="M157,84L157,81L156,81L156,79L155,79L155,78L153,78L153,79L154,79L154,81L155,81L155,84L156,84L156,91L155,91L155,94L154,94L154,96L153,96L153,97L155,97L155,96L156,96L156,94L157,94L157,91L158,91L158,84L157,84Z"/>
        </g>
    </g>
</svg>
