<?xml version="1.0" encoding="UTF-8" standalone="no"?>
<!DOCTYPE svg PUBLIC "-//W3C//DTD SVG 1.1//EN" "http://www.w3.org/Graphics/SVG/1.1/DTD/svg11.dtd">
<svg width="100%" height="100%" viewBox="0 0 450 700" version="1.1" xmlns="http://www.w3.org/2000/svg" xmlns:xlink="http://www.w3.org/1999/xlink" xml:space="preserve" xmlns:serif="http://www.serif.com/" style="fill-rule:evenodd;clip-rule:evenodd;stroke-linejoin:round;stroke-miterlimit:2;">
    <g transform="matrix(1,0,0,1,-100,-100)">
        <g id="eight" transform="matrix(50,0,0,50,-3700,-2600)">
            <path d="M79,56L82,56L82,57L83,57L83,59L82,59L82,60L79,60L79,59L78,59L78,57L79,57L79,56ZM79,62L82,62L82,63L83,63L83,65L82,65L82,66L79,66L79,65L78,65L78,63L79,63L79,62ZM84,60L85,60L85,56L84,56L84,55L83,55L83,54L78,54L78,55L77,55L77,56L76,56L76,60L77,60L77,62L76,62L76,66L77,66L77,67L78,67L78,68L83,68L83,67L84,67L84,66L85,66L85,62L84,62L84,60Z"/>
        </g>
    </g>
</svg>
