<?xml version="1.0" encoding="UTF-8" standalone="no"?>
<!DOCTYPE svg PUBLIC "-//W3C//DTD SVG 1.1//EN" "http://www.w3.org/Graphics/SVG/1.1/DTD/svg11.dtd">
<svg width="100%" height="100%" viewBox="0 0 450 700" version="1.1" xmlns="http://www.w3.org/2000/svg" xmlns:xlink="http://www.w3.org/1999/xlink" xml:space="preserve" xmlns:serif="http://www.serif.com/" style="fill-rule:evenodd;clip-rule:evenodd;stroke-linejoin:round;stroke-miterlimit:2;">
    <g transform="matrix(1,0,0,1,-100,-100)">
        <g id="two" transform="matrix(50,0,0,50,-700,-2600)">
            <path d="M16,58L18,58L18,57L19,57L19,56L22,56L22,57L23,57L23,59L22,59L22,60L21,60L21,61L20,61L20,62L19,62L19,63L18,63L18,64L17,64L17,65L16,65L16,68L25,68L25,66L19,66L19,65L20,65L20,64L21,64L21,63L22,63L22,62L23,62L23,61L24,61L24,60L25,60L25,56L24,56L24,55L23,55L23,54L18,54L18,55L17,55L17,56L16,56L16,58Z"/>
        </g>
    </g>
</svg>
