<?xml version="1.0" encoding="UTF-8" standalone="no"?>
<!DOCTYPE svg PUBLIC "-//W3C//DTD SVG 1.1//EN" "http://www.w3.org/Graphics/SVG/1.1/DTD/svg11.dtd">
<svg width="100%" height="100%" viewBox="0 0 550 700" version="1.1" xmlns="http://www.w3.org/2000/svg" xmlns:xlink="http://www.w3.org/1999/xlink" xml:space="preserve" xmlns:serif="http://www.serif.com/" style="fill-rule:evenodd;clip-rule:evenodd;stroke-linejoin:round;stroke-miterlimit:2;">
    <g transform="matrix(1,0,0,1,-100,-100)">
        <g id="A" transform="matrix(50,0,0,50,100,100)">
            <path d="M0,14L0,11L1,11L1,8L2,8L2,5L3,5L3,2L4,2L4,0L7,0L7,2L8,2L8,5L9,5L9,8L10,8L10,11L11,11L11,14L9,14L9,11L2,11L2,14L0,14ZM3,9L8,9L8,8L7,8L7,5L6,5L6,3L5,3L5,5L4,5L4,8L3,8L3,9Z"/>
        </g>
    </g>
</svg>
