<?xml version="1.0" encoding="UTF-8" standalone="no"?>
<!DOCTYPE svg PUBLIC "-//W3C//DTD SVG 1.1//EN" "http://www.w3.org/Graphics/SVG/1.1/DTD/svg11.dtd">
<svg width="100%" height="100%" viewBox="0 0 550 700" version="1.1" xmlns="http://www.w3.org/2000/svg" xmlns:xlink="http://www.w3.org/1999/xlink" xml:space="preserve" xmlns:serif="http://www.serif.com/" style="fill-rule:evenodd;clip-rule:evenodd;stroke-linejoin:round;stroke-miterlimit:2;">
    <g transform="matrix(1,0,0,1,-100,-100)">
        <g id="B" transform="matrix(50,0,0,50,-500,100)">
            <path d="M12,0L20,0L20,1L21,1L21,2L22,2L22,5L21,5L21,7L22,7L22,8L23,8L23,12L22,12L22,13L21,13L21,14L12,14L12,0ZM14,8L20,8L20,9L21,9L21,11L20,11L20,12L14,12L14,8ZM14,2L19,2L19,3L20,3L20,5L19,5L19,6L14,6L14,2Z"/>
        </g>
    </g>
</svg>
