<?xml version="1.0" encoding="UTF-8" standalone="no"?>
<!DOCTYPE svg PUBLIC "-//W3C//DTD SVG 1.1//EN" "http://www.w3.org/Graphics/SVG/1.1/DTD/svg11.dtd">
<svg width="100%" height="100%" viewBox="0 0 550 700" version="1.1" xmlns="http://www.w3.org/2000/svg" xmlns:xlink="http://www.w3.org/1999/xlink" xml:space="preserve" xmlns:serif="http://www.serif.com/" style="fill-rule:evenodd;clip-rule:evenodd;stroke-linejoin:round;stroke-miterlimit:2;">
    <g transform="matrix(1,0,0,1,-100,-100)">
        <g id="D" transform="matrix(50,0,0,50,-1750,100)">
            <path d="M37,0L45,0L45,1L46,1L46,2L47,2L47,3L48,3L48,11L47,11L47,12L46,12L46,13L45,13L45,14L37,14L37,0ZM39,2L44,2L44,3L45,3L45,4L46,4L46,10L45,10L45,11L44,11L44,12L39,12L39,2Z"/>
        </g>
    </g>
</svg>
