<?xml version="1.0" encoding="UTF-8" standalone="no"?>
<!DOCTYPE svg PUBLIC "-//W3C//DTD SVG 1.1//EN" "http://www.w3.org/Graphics/SVG/1.1/DTD/svg11.dtd">
<svg width="100%" height="100%" viewBox="0 0 650 700" version="1.1" xmlns="http://www.w3.org/2000/svg" xmlns:xlink="http://www.w3.org/1999/xlink" xml:space="preserve" xmlns:serif="http://www.serif.com/" style="fill-rule:evenodd;clip-rule:evenodd;stroke-linejoin:round;stroke-miterlimit:2;">
    <g transform="matrix(1,0,0,1,-100,-100)">
        <g id="M" transform="matrix(50,0,0,50,-6350,100)">
            <path d="M136,11L136,8L137,8L137,5L138,5L138,2L139,2L139,0L142,0L142,14L140,14L140,5L139,5L139,8L138,8L138,11L137,11L137,14L134,14L134,11L133,11L133,8L132,8L132,5L131,5L131,14L129,14L129,0L132,0L132,2L133,2L133,5L134,5L134,8L135,8L135,11L136,11Z"/>
        </g>
    </g>
</svg>
