<?xml version="1.0" encoding="UTF-8" standalone="no"?>
<!DOCTYPE svg PUBLIC "-//W3C//DTD SVG 1.1//EN" "http://www.w3.org/Graphics/SVG/1.1/DTD/svg11.dtd">
<svg width="100%" height="100%" viewBox="0 0 500 700" version="1.1" xmlns="http://www.w3.org/2000/svg" xmlns:xlink="http://www.w3.org/1999/xlink" xml:space="preserve" xmlns:serif="http://www.serif.com/" style="fill-rule:evenodd;clip-rule:evenodd;stroke-linejoin:round;stroke-miterlimit:2;">
    <g transform="matrix(1,0,0,1,-100,-100)">
        <g id="P" transform="matrix(50,0,0,50,-8250,100)">
            <path d="M169,2L174,2L174,3L175,3L175,6L174,6L174,7L169,7L169,2ZM167,0L175,0L175,1L176,1L176,2L177,2L177,7L176,7L176,8L175,8L175,9L169,9L169,14L167,14L167,0Z"/>
        </g>
    </g>
</svg>
