<?xml version="1.0" encoding="UTF-8" standalone="no"?>
<!DOCTYPE svg PUBLIC "-//W3C//DTD SVG 1.1//EN" "http://www.w3.org/Graphics/SVG/1.1/DTD/svg11.dtd">
<svg width="100%" height="100%" viewBox="0 0 600 700" version="1.1" xmlns="http://www.w3.org/2000/svg" xmlns:xlink="http://www.w3.org/1999/xlink" xml:space="preserve" xmlns:serif="http://www.serif.com/" style="fill-rule:evenodd;clip-rule:evenodd;stroke-linejoin:round;stroke-miterlimit:2;">
    <g transform="matrix(1,0,0,1,-100,-100)">
        <g id="Q" transform="matrix(50,0,0,50,-9400,100)">
            <path d="M197,9L199,9L199,10L200,10L200,4L199,4L199,3L198,3L198,2L194,2L194,3L193,3L193,4L192,4L192,10L193,10L193,11L194,11L194,12L198,12L198,11L197,11L197,9ZM202,14L202,12L201,12L201,11L202,11L202,3L201,3L201,2L200,2L200,1L199,1L199,0L193,0L193,1L192,1L192,2L191,2L191,3L190,3L190,11L191,11L191,12L192,12L192,13L193,13L193,14L199,14L199,13L200,13L200,14L202,14Z"/>
        </g>
    </g>
</svg>
