<?xml version="1.0" encoding="UTF-8" standalone="no"?>
<!DOCTYPE svg PUBLIC "-//W3C//DTD SVG 1.1//EN" "http://www.w3.org/Graphics/SVG/1.1/DTD/svg11.dtd">
<svg width="100%" height="100%" viewBox="0 0 550 700" version="1.1" xmlns="http://www.w3.org/2000/svg" xmlns:xlink="http://www.w3.org/1999/xlink" xml:space="preserve" xmlns:serif="http://www.serif.com/" style="fill-rule:evenodd;clip-rule:evenodd;stroke-linejoin:round;stroke-miterlimit:2;">
    <g transform="matrix(1,0,0,1,-100,-100)">
        <g id="V" transform="matrix(50,0,0,50,-11750,100)">
            <path d="M243,11L243,9L244,9L244,6L245,6L245,3L246,3L246,0L248,0L248,3L247,3L247,6L246,6L246,9L245,9L245,12L244,12L244,14L241,14L241,12L240,12L240,9L239,9L239,6L238,6L238,3L237,3L237,0L239,0L239,3L240,3L240,6L241,6L241,9L242,9L242,11L243,11Z"/>
        </g>
    </g>
</svg>
