<?xml version="1.0" encoding="UTF-8" standalone="no"?>
<!DOCTYPE svg PUBLIC "-//W3C//DTD SVG 1.1//EN" "http://www.w3.org/Graphics/SVG/1.1/DTD/svg11.dtd">
<svg width="100%" height="100%" viewBox="0 0 450 700" version="1.1" xmlns="http://www.w3.org/2000/svg" xmlns:xlink="http://www.w3.org/1999/xlink" xml:space="preserve" xmlns:serif="http://www.serif.com/" style="fill-rule:evenodd;clip-rule:evenodd;stroke-linejoin:round;stroke-miterlimit:2;">
    <g transform="matrix(1,0,0,1,-100,-300)">
        <g id="g" transform="matrix(50,0,0,50,-2750,-1300)">
            <path d="M60,34L63,34L63,35L64,35L64,39L63,39L63,40L60,40L60,39L59,39L59,35L60,35L60,34ZM59,32L63,32L63,33L64,33L64,32L66,32L66,44L65,44L65,45L64,45L64,46L59,46L59,45L58,45L58,44L57,44L57,43L60,43L60,44L63,44L63,43L64,43L64,41L63,41L63,42L59,42L59,41L58,41L58,40L57,40L57,34L58,34L58,33L59,33L59,32Z"/>
        </g>
    </g>
</svg>
