<?xml version="1.0" encoding="UTF-8" standalone="no"?>
<!DOCTYPE svg PUBLIC "-//W3C//DTD SVG 1.1//EN" "http://www.w3.org/Graphics/SVG/1.1/DTD/svg11.dtd">
<svg width="100%" height="100%" viewBox="0 0 450 700" version="1.1" xmlns="http://www.w3.org/2000/svg" xmlns:xlink="http://www.w3.org/1999/xlink" xml:space="preserve" xmlns:serif="http://www.serif.com/" style="fill-rule:evenodd;clip-rule:evenodd;stroke-linejoin:round;stroke-miterlimit:2;">
    <g transform="matrix(1,0,0,1,-100,-100)">
        <g id="k" transform="matrix(50,0,0,50,-4150,-1300)">
            <path d="M90,36L90,38L91,38L91,39L92,39L92,40L93,40L93,41L94,41L94,42L91,42L91,41L90,41L90,40L89,40L89,39L88,39L88,38L87,38L87,42L85,42L85,28L87,28L87,36L88,36L88,35L89,35L89,34L90,34L90,33L91,33L91,32L94,32L94,33L93,33L93,34L92,34L92,35L91,35L91,36L90,36Z"/>
        </g>
    </g>
</svg>
