<?xml version="1.0" encoding="UTF-8" standalone="no"?>
<!DOCTYPE svg PUBLIC "-//W3C//DTD SVG 1.1//EN" "http://www.w3.org/Graphics/SVG/1.1/DTD/svg11.dtd">
<svg width="100%" height="100%" viewBox="0 0 21 26" version="1.1" xmlns="http://www.w3.org/2000/svg" xmlns:xlink="http://www.w3.org/1999/xlink" xml:space="preserve" xmlns:serif="http://www.serif.com/" style="fill-rule:evenodd;clip-rule:evenodd;stroke-linejoin:round;stroke-miterlimit:2;">
    <rect id="Artboard1" x="0" y="0" width="20" height="26" style="fill:none;"/>
    <g id="Artboard11" serif:id="Artboard1">
        <g id="Pill" transform="matrix(0.155629,0,0,0.155629,0,0)">
            <path d="M57.83,0L70.681,0L70.681,6.426L83.531,6.426L83.531,12.851L96.381,12.851L96.381,19.277L102.811,19.277L102.811,25.702L109.231,25.702L109.231,32.128L115.661,32.128L115.661,44.978L122.081,44.978L122.081,57.83L128.511,57.83L128.511,109.234L122.081,109.234L122.081,122.085L115.661,122.085L115.661,134.936L109.231,134.936L109.231,141.362L102.811,141.362L102.811,147.787L96.381,147.787L96.381,154.213L83.531,154.213L83.531,160.638L70.681,160.638L70.681,167.064L57.83,167.064L57.83,160.638L44.979,160.638L44.979,154.213L32.128,154.213L32.128,147.787L25.702,147.787L25.702,141.362L19.277,141.362L19.277,134.936L12.85,134.936L12.85,122.085L6.426,122.085L6.426,109.234L0,109.234L0,57.83L6.426,57.83L6.426,44.979L12.851,44.979L12.851,32.128L19.277,32.128L19.277,25.702L25.702,25.702L25.702,19.277L32.128,19.277L32.128,12.85L44.978,12.85L44.978,6.426L57.83,6.426L57.83,0Z" style="fill:white;fill-rule:nonzero;"/>
        </g>
    </g>
</svg>
